<?xml version="1.0" encoding="UTF-8" standalone="no"?>
<!-- Created with Inkscape (http://www.inkscape.org/) -->

<svg
   inkscape:export-ydpi="180"
   inkscape:export-xdpi="180"
   inkscape:export-filename="nait-wink.pdf"
   sodipodi:docname="nait-draft.svg"
   inkscape:version="1.3.2 (091e20ef0f, 2023-11-25, custom)"
   id="canvas"
   style="overflow: hidden; max-width: 100%; max-height: 100vw;"
   version="1.1"
   viewBox="0 0 126.9375 126.93783"
   height="480"
   width="480"
   xml:space="preserve"
   xmlns:inkscape="http://www.inkscape.org/namespaces/inkscape"
   xmlns:sodipodi="http://sodipodi.sourceforge.net/DTD/sodipodi-0.dtd"
   xmlns:xlink="http://www.w3.org/1999/xlink"
   xmlns="http://www.w3.org/2000/svg"
   xmlns:svg="http://www.w3.org/2000/svg"
   xmlns:rdf="http://www.w3.org/1999/02/22-rdf-syntax-ns#"
   xmlns:cc="http://creativecommons.org/ns#"><sodipodi:namedview
     id="namedview7"
     pagecolor="#ffffff"
     bordercolor="#000000"
     borderopacity="0.25"
     inkscape:showpageshadow="2"
     inkscape:pageopacity="0"
     inkscape:pagecheckerboard="0"
     inkscape:deskcolor="#d1d1d1"
     inkscape:document-units="mm"
     showgrid="false"
     inkscape:zoom="1"
     inkscape:cx="192.49999"
     inkscape:cy="383.99999"
     inkscape:window-width="1920"
     inkscape:window-height="1052"
     inkscape:window-x="0"
     inkscape:window-y="0"
     inkscape:window-maximized="1"
     inkscape:current-layer="g422"
     showguides="true" /><defs
     id="defs2"><linearGradient
       inkscape:collect="always"
       id="linearGradient1087"><stop
         style="stop-color:#8aceff;stop-opacity:1;"
         offset="0.2"
         id="stop1083" /><stop
         style="stop-color:#a092ff;stop-opacity:1;"
         offset="0.8"
         id="stop1085" /></linearGradient><linearGradient
       inkscape:collect="always"
       xlink:href="#linearGradient1087"
       id="linearGradient901"
       x1="105.9"
       y1="94.5"
       x2="105.5"
       y2="148.5"
       gradientUnits="userSpaceOnUse"
       gradientTransform="matrix(0.73332707,0.03200865,-0.03940841,0.73345222,-3.465752,-14.529389)" /><linearGradient
       inkscape:collect="always"
       xlink:href="#linearGradient1087"
       id="linearGradient1033"
       x1="105.9"
       y1="94"
       x2="105.2"
       y2="146.8"
       gradientUnits="userSpaceOnUse"
       gradientTransform="matrix(0.73935975,0.03268273,-0.03268273,0.73935975,-4.9402502,-14.684038)" /><radialGradient
       inkscape:collect="always"
       xlink:href="#linearGradient1087"
       id="radialGradient1102"
       cx="98.5"
       cy="88"
       fx="98.5"
       fy="88"
       r="7.5"
       gradientTransform="matrix(0.83,0,0,1.1,-20.182804,-10.368219)"
       gradientUnits="userSpaceOnUse" /><radialGradient
       inkscape:collect="always"
       xlink:href="#linearGradient1087"
       id="radialGradient1104"
       cx="129.8"
       cy="88"
       fx="129.8"
       fy="88"
       r="4.5"
       gradientTransform="matrix(0.82718769,-6.7223864e-4,-0.04966879,2.0031867,-12.108299,-89.487698)"
       gradientUnits="userSpaceOnUse" /></defs><ellipse
     style="display:none;fill:#000000;fill-opacity:0.5;fill-rule:nonzero;stroke:none;stroke-width:0.999509;stroke-linecap:round;stroke-linejoin:round;stroke-opacity:1"
     id="path677"
     cx="70.608788"
     cy="209.0555"
     rx="26.928858"
     ry="6.0774512"
     inkscape:label="shadow" /><g
     inkscape:label="nait"
     inkscape:groupmode="layer"
     id="nait"
     style="fill-rule:nonzero;stroke-linecap:round;stroke-linejoin:round;stroke-opacity:1"><g
       id="g422"
       inkscape:label="body"
       inkscape:groupmode="layer"
       inkscape:transform-center-x="12.114367"
       inkscape:transform-center-y="-51.320182"
       style="stroke-width:0.74942397;stroke-dasharray:none"
       transform="matrix(1.3337049,0,0,1.3337049,-25.632374,-47.860834)">
      <style
   id="style1">
        #arm-2 { transition-property:transform;transition-timing-function:cubic-bezier(.22,.61,.36,1);transition-delay:0.3s;transition-duration:0.5s;transform-origin: 57% 95.5%;transform: rotate(-90deg); }
        #canvas:hover #arm-2 {transform: rotate(-169.5deg);}
      </style>
      <g
   id="arm-2"
   inkscape:label="arm-2"
   transform="rotate(-83.341645,71.816076,119.54551)"
   style="fill-rule:nonzero;stroke-width:0.74942397;stroke-linecap:round;stroke-linejoin:round;stroke-dasharray:none;stroke-opacity:1"
   inkscape:transform-center-x="-16.79553"
   inkscape:transform-center-y="20.069778"><use
     x="0"
     y="0"
     xlink:href="#arm"
     inkscape:transform-center-x="-6.6"
     inkscape:transform-center-y="11"
     id="use2036"
     style="display:inline;fill-rule:nonzero;stroke-width:0.75073892;stroke-linecap:round;stroke-linejoin:round;stroke-dasharray:none;stroke-opacity:1"
     transform="matrix(-0.19,-0.98,-0.98,0.19,201.52084,158.37758)"
     inkscape:label="arm-upper-2" /><use
     x="0"
     y="0"
     xlink:href="#path1995"
     inkscape:transform-center-x="-5.5584194"
     inkscape:transform-center-y="-6.8902361"
     id="use2038"
     style="display:inline;fill-rule:nonzero;stroke-width:0.7586798;stroke-linecap:round;stroke-linejoin:round;stroke-dasharray:none;stroke-opacity:1"
     transform="matrix(-0.33459925,-0.9294043,-0.9294043,0.33459925,201.53507,136.75934)"
     inkscape:label="arm-lower-2" /><path
     id="path2199"
     style="display:inline;fill:#ffe2d4;fill-opacity:1;fill-rule:nonzero;stroke:#886353;stroke-width:0.74942397;stroke-linecap:round;stroke-linejoin:round;stroke-dasharray:none;stroke-opacity:1"
     d="m 49.101993,144.03658 c -1.0319,1.26094 -3.612033,2.08155 -4.348524,1.15439 -0.743647,-0.85382 1.210442,-1.81828 2.380636,-2.09384 m 3.196711,-1.70503 c -0.405358,2.13743 -4.504109,7.47404 -5.490094,8.11274 -2.202307,-0.27486 -0.184881,-2.93505 0.323052,-3.87544 -0.169442,0.0181 -0.398195,-0.25473 -0.552779,-0.31879 -0.690969,0.68528 -1.847169,2.17321 -2.592817,2.04201 -1.360079,-1.00804 -0.07484,-2.54901 1.579799,-4.16436 -0.574514,-1.73728 -0.109669,-3.32036 3.774485,-5.19002"
     sodipodi:nodetypes="cscccccccc"
     inkscape:transform-center-x="-15.949174"
     inkscape:transform-center-y="-16.41894" /></g>
      <style
   id="style2">
        #sleeve-2 { transition-property:transform;transition-timing-function:cubic-bezier(.22,.61,.36,1);transition-duration:0.5s;transition-delay:0.3s;transform-origin: 58% 93.5%;transform: rotate(0deg); }
        #canvas:hover #sleeve-2 {transform:rotate(-90deg);}
      </style>
      <g
   id="sleeve-2"
   inkscape:label="sleeve-2"
   inkscape:transform-center-x="-11.651132"
   inkscape:transform-center-y="15.62497"
   transform="rotate(-4.3416353,75.644034,98.412538)"
   style="display:inline;stroke-width:0.74942397;stroke-dasharray:none"><use
     x="0"
     y="0"
     xlink:href="#g2027"
     id="use2045"
     style="fill-rule:nonzero;stroke-width:0.74942397;stroke-linecap:round;stroke-linejoin:round;stroke-dasharray:none;stroke-opacity:1"
     inkscape:label="sleeve-upper-2"
     transform="matrix(-1,0,0,1,133.37347,0.16331726)"
     inkscape:transform-center-x="-7.3"
     inkscape:transform-center-y="8" /><use
     x="0"
     y="0"
     xlink:href="#g2031"
     id="use2043"
     style="display:inline;fill-rule:nonzero;stroke-width:0.75474864;stroke-linecap:round;stroke-linejoin:round;stroke-dasharray:none;stroke-opacity:1"
     inkscape:label="sleeve-lower-2"
     transform="matrix(-0.9816938,0.14905464,0.14905464,0.9816938,112.137,-6.7321455)"
     inkscape:transform-center-x="-9.0253934"
     inkscape:transform-center-y="-9.95456" /></g><g
   id="g3260"
   inkscape:label="pants-2"
   style="display:inline;fill-rule:nonzero;stroke-width:0.74942397;stroke-linecap:round;stroke-linejoin:round;stroke-dasharray:none;stroke-opacity:1"
   transform="rotate(1.7176339,70.793744,148.95718)"
   inkscape:transform-center-x="-10.496936"
   inkscape:transform-center-y="24.656872"><use
     x="0"
     y="0"
     xlink:href="#g3230"
     id="use3243"
     transform="rotate(-8.2,58.5,64.6)"
     inkscape:transform-center-x="0.81"
     inkscape:transform-center-y="8.3"
     inkscape:label="pants-upper-2"
     style="stroke-width:0.74942397;stroke-dasharray:none" /><use
     x="0"
     y="0"
     xlink:href="#g3234"
     id="use3245"
     transform="rotate(-8.2,58.5,64.6)"
     inkscape:transform-center-x="-0.84"
     inkscape:transform-center-y="34.6"
     inkscape:label="pants-lower-2"
     style="stroke-width:0.74942397;stroke-dasharray:none" /><use
     x="0"
     y="0"
     xlink:href="#g3238"
     id="use3619"
     style="fill-rule:nonzero;stroke-width:0.74942397;stroke-linecap:round;stroke-linejoin:round;stroke-dasharray:none;stroke-opacity:1"
     transform="translate(17.22,-0.811)"
     inkscape:label="shoe-2" /></g><path
   id="body"
   stroke="#000000"
   stroke-width="1"
   d="m 64.6,109.9 c -0.34,2.3 -1,6.5 -1.9,7.6 -0.88,1.1 -4,3.3 -4.4,6.2 -0.32,2.9 1.416696,7.60348 1.006696,10.77348 -0.42,3.1 -1.564313,5.13819 -1.63472,9.38055 -0.07041,4.24237 4.600407,6.60671 10.524977,7.06834 5.924569,0.46163 11.124514,-2.60817 10.877617,-6.06842 -0.246897,-3.46026 -1.565047,-7.09922 -1.965047,-9.79922 -0.38,-2.7 0.290477,-6.88473 -0.03952,-9.18473 -0.34,-2.3 -3,-6.9 -5,-8 -1.9,-1.1 -1.4,-6.2 -1.4,-7.5 0.07,-1.3 -5.6,-2.7 -6,-0.37 z"
   style="fill:#ffe2d4;fill-opacity:1;fill-rule:nonzero;stroke:#886353;stroke-width:0.74942397;stroke-linecap:round;stroke-linejoin:round;stroke-dasharray:none;stroke-opacity:1"
   sodipodi:nodetypes="czzzzzzzzsccc"
   inkscape:transform-center-x="0.91"
   inkscape:transform-center-y="-26.6" />
      <style
   id="style3">
        @keyframes head { 0% { transform: rotate(0.8deg); } 50% { transform: rotate(-0.8deg); } 100% { transform: rotate(0.8deg); } }
        #head { transition-property:transform;transition-timing-function:cubic-bezier(.22,.61,.36,1);transition-duration:0.5s;transform: rotate(0deg);transform-origin: 50% 88%; /* animation: head 16s 0s ease-in infinite; */ }
        #canvas:hover #head { transform: rotate(-3deg); }
      </style>
  <g
   id="head"
   inkscape:label="head"
   style="stroke-width:0.74942397;stroke-dasharray:none"><g
   id="g2"
   inkscape:label="head-inner"
   style="fill-rule:nonzero;stroke-width:1.01262322;stroke-linecap:round;stroke-linejoin:round;stroke-dasharray:none;stroke-opacity:1"
   transform="matrix(0.73997593,-0.01251506,0.01251506,0.73997593,15.172545,28.382341)"><path
     id="head-inner"
     d="m 28.5,74 c 0.14,-14.3 8,-34.4 37,-36.4 28.5,1.7 40.07,17.3 40.5,39.7 -0.14,11.3 -2.2,11.7 -0.71,20.54 0.14,10.05 -12.5,18.3 -30.79,18.5 -18.2,0.19 -29.4,-3.9 -37.3,-15.8 C 29.3,88.6 28.4,81 28.5,74 Z"
     inkscape:label="head-inner"
     style="fill:#ffe2d4;stroke:#886353;stroke-width:1.01262322;stroke-dasharray:none"
     sodipodi:nodetypes="cccczzc" /><path
     d="m 39.000799,102.92437 c -9.620057,2.74348 -14.32743,-5.985013 -11.384355,-9.572257 1.653374,-2.015256 6.258229,-2.395181 7.410513,0.390611"
     style="display:inline;fill:#ffe2d4;fill-rule:nonzero;stroke:#886353;stroke-width:1.01262322;stroke-linecap:round;stroke-linejoin:round;stroke-dasharray:none;stroke-opacity:1"
     id="ear-a1-3"
     sodipodi:nodetypes="csc"
     inkscape:label="ear-a1" /><path
     d="M 34.570235,97.752613 C 34.235909,95.837235 31.865621,93.573108 29.25711,93.808551 m 4.144191,2.183316 c -2.981441,-0.232789 -2.29779,4.451173 1.23884,4.555663"
     style="display:inline;fill:none;fill-rule:nonzero;stroke:#886353;stroke-width:1.01262322;stroke-linecap:round;stroke-linejoin:round;stroke-dasharray:none;stroke-opacity:1"
     id="ear-b1-5"
     inkscape:label="ear-b1"
     sodipodi:nodetypes="cccc" /></g>
    <style
   id="style4">
      #canvas:hover #eyes-a1,
      #canvas:hover #eyes-f1,
      #canvas:hover #eyes-c1,
      #canvas:hover #look-1 { opacity: 0 }
      #canvas:hover #wink-1 { opacity: 1 }
      #eyes-a1, #eyes-f1, #eyes-c1, #look-1 { opacity: 1;transition-property:opacity;transition-delay:0.3s;transition-duration: 0s;transition-timing-function:step-end; }
      #wink-1 { display: inline !important; opacity: 0;transition-property:opacity;transition-delay:0.3s;transition-duration: 0s;transition-timing-function:step-end; }
    </style>
    <g
   id="eyes"
   inkscape:label="eyes"
   style="display:inline;fill-rule:nonzero;stroke-width:1.01262322;stroke-linecap:round;stroke-linejoin:round;stroke-dasharray:none;stroke-opacity:1"
   transform="matrix(0.73997593,-0.01251506,0.01251506,0.73997593,15.172545,28.382341)"><path
     id="eyes-c1"
     stroke-width="1"
     d="m 63.4,77.4 c 3.9,-0.04 7.7,2.9 7.7,10.27 0,7.3 -3.4,11.5 -7.3,11.6 -3.9,0.03 -16.4,-4.8 -16.3,-12.3 0.04,-7.4 12,-9.5 15.9,-9.5 z"
     style="display:inline;fill:#ffffff;stroke:none;stroke-width:1.01262322;stroke-dasharray:none"
     sodipodi:nodetypes="zzzzz"
     inkscape:label="eyes-c1" /><path
     style="display:inline;fill:#000000;fill-opacity:0.325107;fill-rule:nonzero;stroke:none;stroke-width:1.01262322;stroke-linecap:round;stroke-linejoin:round;stroke-dasharray:none;stroke-opacity:1"
     d="M 49.113131,87.42982 C 51.958264,80.437017 62.570302,76.40797 68.727266,79.83034 66.462204,75.824256 61.83579,76.838949 56.964613,78.836251 52.093436,80.833553 47.36392,84.48854 49.113131,87.42982 Z"
     id="eyes-f1"
     sodipodi:nodetypes="ccsc"
     inkscape:label="eyes-f1" /><path
     d="m 91.8,77.8 c -3.5,-0.01 -5.7,3.8 -5.7,9.4 0,5.5 2.4,11.9 5.9,11.9 3.4,-7.9e-4 9.9,-5.9 9.9,-13.3 -0.03,-7.4 -6.5,-7.9 -10.12,-7.9 z"
     style="fill:#ffffff;stroke:none;stroke-width:1.01262322;stroke-dasharray:none"
     id="eyes-c2"
     inkscape:label="eyes-c2"
     sodipodi:nodetypes="zzzzz" /><path
     style="display:inline;fill:#000000;fill-opacity:0.325107;fill-rule:nonzero;stroke:none;stroke-width:1.01262322;stroke-linecap:round;stroke-linejoin:round;stroke-dasharray:none;stroke-opacity:1"
     d="m 100.93122,87.8297 c -1.804689,-6.724987 -7.222789,-10.909925 -12.103482,-8.751796 2.113914,-4.322048 5.358641,-2.833266 8.9346,1.030691 3.284752,3.549297 5.474272,5.19207 3.168882,7.721105 z"
     id="eyes-f2"
     sodipodi:nodetypes="ccsc"
     inkscape:label="eyes-f2" /><path
     id="eyes-a1"
     stroke-width="1"
     d="m 70.66,80.19 c -10.43,-12.7 -23,1.6 -26.5,5.4 1,4.2 4.8,8.1 8.4,9.3 -1.8,-2.9 -3.1,-4.4 -3.5,-8.3 0.86,-2.5 9.4,-13.3 21.6,-6.4 z"
     style="display:inline;fill:#000000;stroke:none;stroke-width:1.01262322;stroke-dasharray:none"
     inkscape:label="eyes-a1"
     sodipodi:nodetypes="ccccc" /><path
     d="m 86.1,80.05 c 8.7,-11.3 14.6,-0.37 17.6,5.2 -0.98,4.8 -3.3,7.2 -5.4,9.7 1.7,-4.3 2.6,-5.9 2.9,-8.1 -0.75,-1.8 -5,-13.5 -15.1,-6.8 z"
     style="fill:#000000;stroke:none;stroke-width:1.01262322;stroke-dasharray:none"
     id="eyes-a2"
     inkscape:label="eyes-a2"
     sodipodi:nodetypes="ccccc" /><g
     id="look-2"
     inkscape:label="look-2"
     style="display:inline;fill-rule:nonzero;stroke-width:1.01262322;stroke-linecap:round;stroke-linejoin:round;stroke-dasharray:none;stroke-opacity:1"><path
       d="m 91.109541,77.322714 c 6.49388,-0.08388 5.716532,21.153136 -0.07459,21.227942 -5.782682,0.114743 -6.42819,-21.143944 0.07459,-21.227942 z"
       style="fill:url(#radialGradient1104);stroke:#000000;stroke-width:1.01262322;stroke-dasharray:none;stroke-opacity:0.96"
       id="eyes-b2"
       inkscape:label="eyes-b2"
       sodipodi:nodetypes="zzz" /><path
       style="fill:#000000;fill-opacity:0.325107;fill-rule:nonzero;stroke:none;stroke-width:1.01262322;stroke-linecap:round;stroke-linejoin:round;stroke-dasharray:none;stroke-opacity:1"
       d="m 86.626796,84.729341 c 3.843751,-2.292534 5.752672,-2.413455 8.82426,-0.739569 -0.258715,-7.412491 -6.760504,-10.290208 -8.82426,0.739569 z"
       id="path2384"
       sodipodi:nodetypes="ccc"
       inkscape:label="eyes-e2" /><path
       id="eyes-d2"
       stroke-width="0.943771"
       d="m 88.157864,78.762623 c -2.517233,2.335443 -0.618479,6.616389 2.448287,3.673083 3.057871,-2.943189 0.06853,-6.00852 -2.448287,-3.673083 z m 5.564568,11.142374 c 2.312889,-0.02988 2.277267,3.074529 0.04444,3.103371 -2.223932,0.02873 -2.277268,-3.074529 -0.04444,-3.103371 z"
       style="fill:#ffffff;stroke:none;stroke-width:1.01262322;stroke-dasharray:none"
       sodipodi:nodetypes="zzzsss" /></g><g
     id="look-1"
     inkscape:label="look-1"
     style="display:inline;stroke-width:1.01262322;stroke-dasharray:none"><path
       id="eye-b1"
       stroke-width="1"
       d="m 61.877196,77.661781 c 10.3,-0.6 9.9,21.2 0.5,21.1 -9.3,-0.1 -10.88,-20.7 -0.5,-21.1 z"
       inkscape:label="eyes-b1"
       style="fill:url(#radialGradient1102);fill-opacity:1;stroke:#000000;stroke-width:1.01262322;stroke-dasharray:none;stroke-opacity:1"
       sodipodi:nodetypes="zzz" /><path
       style="fill:#000000;fill-opacity:0.325107;fill-rule:nonzero;stroke:none;stroke-width:1.01262322;stroke-linecap:round;stroke-linejoin:round;stroke-dasharray:none;stroke-opacity:1"
       d="M 55.133363,85.890217 C 60.716167,83.59462 63.633453,83.530882 68.910329,85.114418 68.55706,77.381123 57.334299,73.223629 55.133363,85.890217 Z"
       id="path2346"
       sodipodi:nodetypes="ccc"
       inkscape:label="eyes-e1" /><path
       id="eyes-d1"
       stroke-width="1"
       d="m 56.877196,79.061781 c 4.5,-3 10.5,0.53 5.2,4 -5.2,3.5 -9.7,-0.98 -5.2,-4 z m 9.6,10.91 c 3.5,0 5.2,2.9 0.18,3.1 -5.1,0.18 -3.6,-3.1 -0.18,-3.1 z"
       style="display:inline;fill:#ffffff;fill-rule:nonzero;stroke:none;stroke-width:1.01262322;stroke-linecap:round;stroke-linejoin:round;stroke-dasharray:none;stroke-opacity:1"
       sodipodi:nodetypes="zzzsss" /></g></g><g
   id="winks"
   inkscape:label="winks"
   style="display:inline;fill-rule:nonzero;stroke-width:1.04786183;stroke-linecap:round;stroke-linejoin:round;stroke-dasharray:none;stroke-opacity:1"
   transform="matrix(0.71510766,0.01108067,-0.01108067,0.71510766,19.033451,28.928461)"><path
     id="wink-1"
     style="fill:#000000;fill-opacity:1;fill-rule:nonzero;stroke:none;stroke-width:1.04786183;stroke-linecap:butt;stroke-linejoin:miter;stroke-dasharray:none;stroke-opacity:1"
     d="m 45.948674,90.834616 c 3.853826,-5.47109 22.069576,-5.29349 26.14151,-0.587688 -5.283355,-2.598881 -14.560126,-3.604963 -26.14151,0.587688 z m -0.148269,-0.427389 c 8.726976,-9.454224 18.67705,-9.520337 26.445381,-0.462794 -6.586595,-4.348134 -19.014665,-4.443982 -26.445381,0.462794 z"
     sodipodi:nodetypes="cccccc"
     inkscape:label="wink-1" /><path
     id="wink-2"
     style="display:none;fill:#000000;fill-opacity:1;fill-rule:nonzero;stroke:none;stroke-width:1.04786183;stroke-linecap:butt;stroke-linejoin:miter;stroke-dasharray:none;stroke-opacity:1"
     d="m 102.99503,90.834616 c -2.73656,-5.47109 -15.671309,-5.29349 -18.562736,-0.587688 3.75164,-2.598881 10.338948,-3.604963 18.562736,0.587688 z m 0.10528,-0.427389 c -6.009123,-8.594749 -13.272874,-8.793089 -18.778506,-0.462794 4.677053,-4.348134 13.502054,-4.443982 18.778506,0.462794 z"
     sodipodi:nodetypes="cccccc"
     inkscape:label="wink-2" /></g><g
   id="winks-down"
   inkscape:label="winks-down"
   style="display:none;fill-rule:nonzero;stroke-width:1.04786184;stroke-linecap:round;stroke-linejoin:round;stroke-dasharray:none;stroke-opacity:1"
   transform="matrix(0.70868693,0.09625265,-0.09625265,0.70868693,21.993215,9.2549818)"><path
     id="wink-down-1"
     style="fill:#000000;fill-opacity:1;fill-rule:nonzero;stroke:none;stroke-width:1.04786184;stroke-linecap:butt;stroke-linejoin:miter;stroke-dasharray:none;stroke-opacity:1"
     d="m 45.948674,85.289469 c 3.853826,3.990731 22.069576,3.861186 26.14151,0.428672 -5.283355,1.89568 -14.560126,2.629538 -26.14151,-0.428672 z m -0.148269,0.311747 c 8.726976,6.896115 18.67705,6.94434 26.445381,0.337572 -6.586595,3.171623 -19.014665,3.241536 -26.445381,-0.337572 z"
     sodipodi:nodetypes="cccccc"
     inkscape:label="wink-down-1" /><path
     id="wink-down-2"
     style="fill:#000000;fill-opacity:1;fill-rule:nonzero;stroke:none;stroke-width:1.04786184;stroke-linecap:butt;stroke-linejoin:miter;stroke-dasharray:none;stroke-opacity:1"
     d="m 102.99503,85.289469 c -2.73656,3.990731 -15.671309,3.861186 -18.562736,0.428672 3.75164,1.89568 10.338948,2.629538 18.562736,-0.428672 z m 0.10528,0.311747 c -6.009123,6.269196 -13.272874,6.413869 -18.778506,0.337572 4.677053,3.171623 13.502054,3.241536 18.778506,-0.337572 z"
     sodipodi:nodetypes="cccccc"
     inkscape:label="wink-down-2" /></g><g
   id="face"
   inkscape:label="face"
   style="fill-rule:nonzero;stroke-width:1.01262322;stroke-linecap:round;stroke-linejoin:round;stroke-dasharray:none;stroke-opacity:1"
   transform="matrix(0.73997593,-0.01251506,0.01251506,0.73997593,15.172545,28.382341)"><path
     style="fill:none;fill-rule:evenodd;stroke:#000000;stroke-width:1.01262322;stroke-dasharray:none"
     d="m 80.79,99.2 c -0.18,0.9 -1.1,1.3 -1.1,1.3"
     id="nose"
     sodipodi:nodetypes="cc"
     inkscape:label="nose" /><path
     id="mouth"
     stroke-width="1"
     d="m 71.3,107.5 c 2.4,1.7 5.5,1.4 9.1,0.72"
     style="display:none;fill:none;stroke:#000000;stroke-width:1.01262322;stroke-dasharray:none"
     sodipodi:nodetypes="cc" /><path
     id="mouth-alt"
     stroke-width="1"
     d="m 70.46,107 c 2.4,2.1 4.1,0.76 5.6,0.82 1.5,0.05 2.7,1.2 5,-0.41"
     style="display:inline;fill:none;fill-rule:nonzero;stroke:#000000;stroke-width:1.01262322;stroke-linecap:round;stroke-linejoin:round;stroke-dasharray:none;stroke-opacity:1"
     sodipodi:nodetypes="csc"
     inkscape:label="mouth-alt" /></g><path
   id="rearhair"
   stroke-width="1"
   d="m 83.576656,55.278546 c -7.37457,-2.762007 -23.980067,-4.257612 -28.105319,1.289546 -26.646801,4.373666 -23.60384,31.116992 -28.890367,33.649021 4.500087,-0.890315 6.217208,-4.398238 7.011158,-5.595966 -5.77213,8.831836 -2.510137,13.513867 -5.259471,17.261303 9.514561,-6.378492 4.916698,-6.89288 7.227369,-19.071036 -1.337439,12.827865 -0.891109,17.335456 1.510446,23.660456 0.884534,-8.971229 3.894816,-14.795604 3.894816,-14.795604 0,0 -0.09695,6.959403 4.982392,14.497434 0.369491,-7.038036 0.493176,-7.602671 -1.953998,-14.874336 1.740583,6.632251 3.89887,11.703046 6.071081,13.220696 -0.333644,-2.65903 -3.881964,-28.209509 1.107321,-30.81053 5.063283,-2.602272 38.065116,-7.60155 41.27548,2.780798 2.43084,8.05654 0.970045,22.781372 -1.240139,27.333892 2.976332,-3.4552 6.116929,-5.950932 4.884476,-17.551033 1.198662,9.602166 -1.183186,13.195351 -2.293309,17.581233 5.891182,-6.169175 10.384238,-20.604804 0.210589,-31.313497 7.243939,8.167586 6.802459,8.32309 8.554459,11.254209 0.0401,-2.443297 -2.820192,-13.571754 -10.736524,-17.730955 7.641776,1.055056 9.908924,-0.567289 12.826774,-3.103668 -10.039896,1.576159 -13.851159,-4.947052 -21.300353,-7.744806 z"
   style="display:inline;fill:url(#linearGradient901);fill-opacity:1;fill-rule:nonzero;stroke:#003274;stroke-width:0.74942397;stroke-linecap:round;stroke-linejoin:round;stroke-dasharray:none;stroke-opacity:1"
   sodipodi:nodetypes="zccccccccccsscccccccz" /><path
   id="glasses"
   stroke-width="1"
   d="m 51.969812,85.864723 c 6.215673,-0.112527 16.135355,-0.04344 19.403639,0.634074 2.839442,1.58039 3.727413,1.565371 6.070932,0.08237 2.359788,-0.521032 5.539932,-0.678444 8.27922,-0.643352 2.886281,-0.02661 6.748799,0.774084 7.799783,1.644534 0.976987,0.871702 0.778286,5.316188 0.812937,7.802632 0.0413,2.441921 -0.963379,4.309381 -2.649054,5.300139 -1.612929,0.9155 -5.606296,1.13108 -8.640197,1.18239 -2.959904,0.0501 -5.081897,-2.874803 -5.873185,-5.896189 -0.776488,-3.021637 -0.894069,-4.72208 -2.448019,-4.695798 -1.553949,0.02628 -1.886392,2.252467 -2.577559,5.150888 -0.66282,2.823923 -1.090099,5.569839 -5.674195,5.869429 -4.584597,0.26999 -7.887893,0.14821 -11.770999,-0.1192 -2.594046,-0.20039 -5.214874,-1.98433 -6.067644,-4.264485 -1.164811,-2.3489 -1.342843,-4.12234 -2.923074,-5.650007 -2.00682,-0.491593 -3.904351,1.102296 -5.77006,0.201214 -1.92206,0.143535 -5.212529,2.530777 -5.977535,1.06334 -0.690258,-1.424289 -0.40428,-2.021276 0.55018,-2.481531 0.95446,-0.460255 12.27625,-5.018845 17.45483,-5.180448 z m -8.479687,1.919865 0.599222,4.356972 m 16.346227,-4.643567 c 8.657593,-0.153826 10.453685,1.007499 9.683355,7.978291 -0.771581,6.896796 -4.862724,5.707666 -10.121559,5.500536 -5.184838,-0.20839 -10.35716,0.3232 -10.930051,-7.291038 -0.571639,-7.540246 2.711788,-5.967365 11.368255,-6.187789 z m 25.980414,-0.01009 c 6.736034,0.01931 6.31858,1.595566 6.332188,6.776649 0.01361,5.181083 -1.239346,5.498349 -5.524948,5.940918 -4.284852,0.48698 -7.314874,0.76768 -8.754085,-5.551382 -1.439586,-6.341266 1.136563,-7.199042 7.939445,-7.16606 z"
   inkscape:label="glasses"
   style="display:inline;fill:#191919;fill-rule:evenodd;stroke:none;stroke-width:0.74942397;stroke-linecap:round;stroke-linejoin:round;stroke-dasharray:none;stroke-opacity:1"
   sodipodi:nodetypes="ccczzzzzzzzzczcczzccczzzzzzzzzz" />
    <style
   id="style5">
      @keyframes fronthair { 0% { transform: skewX(-1deg); } 50% { transform: skewX(1deg); } 100% { transform: skewX(-1deg); } }
      @keyframes hair-tip { 0% { transform: rotate(-5deg); } 50% { transform: rotate(5deg); } 100% { transform: rotate(-5deg); } }
      #fronthair { transform-origin: 50% 24%; animation: fronthair 4s 0s ease-in-out infinite; }
      #hair-tip { transform-origin: 47% 45%; animation: hair-tip 4s 0s ease-in-out infinite; }
      .smooth { transition: all 0.16s 0s ease-out; }
    </style>
    <g
   id="fronthair"
   inkscape:label="fronthair"
   style="stroke-width:0.74942397;stroke-dasharray:none"><path
     id="fronthair-inner"
     stroke-width="1"
     d="m 41.117831,70.060208 c -4.605439,7.790645 -5.813906,19.491244 -0.63314,28.211855 1.166758,-9.790209 4.849434,-19.62297 8.523191,-25.606604 -2.888727,8.635033 -2.980563,16.334537 1.702243,26.24787 -0.01922,-12.952958 7.791817,-20.708996 7.064892,-27.802503 -0.722613,5.415591 2.283596,8.103442 4.546075,10.581815 0.462808,-3.708766 2.95005,-5.009151 2.538921,-11.811923 0.878516,11.680105 6.750826,14.023407 6.36159,26.021029 6.046685,-5.727692 7.930892,-16.862373 5.97082,-23.342873 0.670279,2.431282 1.890922,11.144852 0.460921,13.685675 5.113501,-4.009478 9.370478,-10.521108 0.06081,-23.538994 8.470166,15.023189 11.67847,16.530724 13.156535,33.900134 1.207899,-2.981179 6.607696,-16.321863 -1.899048,-29.131273"
     style="fill:url(#linearGradient1033);fill-opacity:1;fill-rule:nonzero;stroke:#003274;stroke-width:0.74942397;stroke-linecap:round;stroke-linejoin:round;stroke-dasharray:none;stroke-opacity:1"
     sodipodi:nodetypes="ccccccccccccc"
     inkscape:label="fronthair-inner" /><path
     id="fronthair-highlight"
     stroke-width="1"
     d="m 73.234355,60.856833 c 0.957897,8.495957 0.942806,26.860266 -1.672457,34.158336 5.879918,-6.835153 5.306783,-24.967458 1.672457,-34.158336 z"
     style="fill:#3efef9;fill-rule:nonzero;stroke:none;stroke-width:0.74942397;stroke-linecap:round;stroke-linejoin:round;stroke-dasharray:none;stroke-opacity:1"
     inkscape:transform-center-x="-0.996"
     inkscape:transform-center-y="-22.07"
     sodipodi:nodetypes="ccc" /></g><path
   id="hair-tip"
   stroke-width="1"
   d="m 58.911997,45.555124 c -2.458349,3.446441 -5.045671,8.020148 0.466741,12.279221 2.992602,-2.493233 1.102772,-9.196977 -0.466741,-12.279221 z"
   style="display:inline;fill:#8aceff;fill-rule:nonzero;stroke:#003274;stroke-width:0.74942397;stroke-linecap:round;stroke-linejoin:round;stroke-dasharray:none;stroke-opacity:1" /><g
   id="visor"
   inkscape:label="visor"
   style="display:inline;fill-rule:nonzero;stroke-width:1.01262322;stroke-linecap:round;stroke-linejoin:round;stroke-dasharray:none;stroke-opacity:1"
   transform="matrix(0.73997593,-0.01251506,0.01251506,0.73997593,15.172545,28.382341)"><path
     id="visor-inner"
     stroke-width="1"
     d="m 38.7,54.4 c 9.5,-7.1 43.8,-11.9 61.8,-2.5 3.4,4.1 3,7.4 2.8,10.54 -19.6,-6.5 -46.9,-3.3 -65,3.6 -1.1,-4.1 -0.46,-6.9 0.38,-11.6 z M 38.3,66 c 0.27,1.7 5.7,12.6 12.2,13.1 6.5,0.47 20.41,-9 35.6,-7.9 15.2,1 16.9,6.7 25.1,7.2 2.1,0.12 2.9,-0.72 2.9,-1.5 0.05,-0.85 -6.2,-9.9 -11,-14.6 0,0 -14.9,-4.6 -33,-3.3 -18,1.2 -31.9,7 -31.9,7 z m -0.52,-8.6 c -2.1,0.57 -4.4,2.3 -5.8,3.3 -0.79,1.8 -2.2,6.5 -2.3,8.2 2.2,-2 7.1,-4 8,-4"
     style="fill:#c2fdff;stroke:#000000;stroke-width:1.01262322;stroke-dasharray:none"
     sodipodi:nodetypes="cccccczzszczccccc"
     inkscape:label="visor-inner" /><path
     id="visor-highlight"
     stroke-width="1"
     d="m 48.4,50.62 c -0.22,3 -0.25,8.7 0.01,11.6 2.7,-0.75 4.6,-1 5.7,-1.4 -0.03,-0.77 -0.57,-9.7 -0.14,-11.7 -1.3,0.32 -3.2,0.77 -5.6,1.4 z m 0.33,12.6 c 2.6,2 11.7,8.3 12.8,12.4 2.8,-1 5.8,-2 7,-2.4 -1.1,-2.2 -12.6,-10.6 -14.3,-11.3 C 52,62.3 50.59,62.7 48.7,63.2 Z"
     style="fill:#8aceff;stroke:none;stroke-width:1.01262322;stroke-dasharray:none"
     sodipodi:nodetypes="ccccccccccc"
     inkscape:label="visor-highlight" /></g><path
   id="eyebrow-alt"
   stroke-width="0.740082"
   d="m 52.682038,79.834952 c 3.560804,-3.909199 10.368583,-4.024337 13.320568,-0.166073 -5.708828,-0.554813 -8.225747,-0.57146 -13.320568,0.166073 z m 27.388997,0.121523 c 0.604873,-2.748924 6.052943,-5.357704 8.803586,-0.274725 -3.120414,-0.687412 -4.97536,-0.952115 -8.803586,0.274725 z"
   style="display:none;fill:#89aeff;fill-rule:nonzero;stroke:#003274;stroke-width:0.74942397;stroke-linecap:round;stroke-linejoin:round;stroke-dasharray:none;stroke-opacity:1"
   inkscape:label="eyebrow-alt" /><path
   id="eyebrow"
   style="display:inline;fill:none;fill-rule:evenodd;stroke:#000000;stroke-width:0.74942397;stroke-linecap:round;stroke-linejoin:round;stroke-dasharray:none;stroke-opacity:1"
   d="m 80.94599,79.171882 c 3.661083,-2.3565 5.96502,-1.803316 8.214984,-0.06492 M 52.902154,79.7202 c 5.874753,-2.764034 9.7414,-1.719148 12.95058,-0.159816"
   sodipodi:nodetypes="cccc"
   inkscape:label="eyebrow" /></g><path
   id="bottom"
   stroke="#000000"
   stroke-width="1"
   d="m 72.8,152.1 c -3.3,3 -19.9,1.9 -15.8,-7.7 8.8,3.8 19.2,1.9 22.8,-0.65 0.47,2.4 0.47,3.4 0.46,4"
   style="display:inline;fill:#8aceff;fill-opacity:1;fill-rule:nonzero;stroke-width:0.74942397;stroke-linecap:round;stroke-linejoin:round;stroke-dasharray:none;stroke-opacity:1"
   sodipodi:nodetypes="cccc"
   inkscape:transform-center-x="0.11"
   inkscape:transform-center-y="-0.15"
   inkscape:label="bottom" /><path
   id="shirt-body"
   stroke="#000000"
   stroke-width="1"
   d="m 63.456928,117.17251 c -7.1,-0.05 -3.7,12.7 -4.1,16.5 -0.42,3.7 -1.8,9.2 -3.1,9.5 6.8,3.7 18.8,4.4 24,0.66 -0.79,-2.9 -2,-5.3 -2.3,-9.3 -0.29,-3.9 1.2,-12.4 -5.1,-17.6 -0.84,2.2 -5.4,2.3 -9.1,0.09 z"
   style="display:inline;fill:#fff087;fill-opacity:1;stroke-width:0.74942397;stroke-linecap:round;stroke-linejoin:round;stroke-dasharray:none"
   sodipodi:nodetypes="csccccc"
   inkscape:transform-center-x="1.4"
   inkscape:transform-center-y="-22.8" /><g
   id="g3256"
   inkscape:label="pants-1"
   inkscape:transform-center-x="9.2925696"
   inkscape:transform-center-y="26.559981"
   transform="rotate(1.7176339,70.562563,151.43334)"
   style="display:inline;stroke-width:0.74942397;stroke-dasharray:none"><g
     id="g3230"
     inkscape:label="leg-upper-1"
     style="stroke-width:0.74942397;stroke-dasharray:none"><path
       id="pants-upper-1"
       stroke="#000000"
       stroke-width="1"
       d="m 56.8,145.2 c -1.2,3.3 -1.8,9.5 -2.4,18.8 -0.56,9.3 11.5,9.3 12.3,1.3 0.73,-8 1.538831,-12.85793 1.538831,-16.25793"
       style="fill:#8aceff;fill-opacity:1;stroke-width:0.74942397;stroke-linecap:round;stroke-linejoin:round;stroke-dasharray:none"
       sodipodi:nodetypes="czzc"
       inkscape:transform-center-x="1.3"
       inkscape:transform-center-y="6.9" /><path
       style="fill:#ffffff;fill-opacity:1;fill-rule:nonzero;stroke:none;stroke-width:0.74942397;stroke-linecap:round;stroke-linejoin:round;stroke-dasharray:none;stroke-opacity:1"
       d="m 57.5,145.5 c -1.1,3.7 -2.4,17.9 -2.2,19.5 0,0 0.26,0.04 0.27,0.39 h 0.5 c -0.25,-3.6 1.2,-16.2 2.1,-19.9 z"
       id="path2971"
       sodipodi:nodetypes="cccccc"
       inkscape:label="pants-deco-upper-1"
       inkscape:transform-center-x="7.5"
       inkscape:transform-center-y="4.6" /></g><g
     id="g3234"
     inkscape:label="leg-lower-1"
     style="stroke-width:0.74942397;stroke-dasharray:none"><path
       id="pants-lower-1"
       stroke="#000000"
       stroke-width="1"
       d="m 54.4,164.1 c -0.779,4.72 -1,16.3 -0.86,18.1 -0.71,1.1 -0.4,1.1 -0.45,1.7 2.4,3.3 8.6,3.3 11,2.5 1.1,-1 0.3,-2.4 0.4,-3.6 0.24,-4 2.3,-14.34 2.15,-17.25"
       style="display:inline;fill:#8aceff;fill-opacity:1;stroke-width:0.74942397;stroke-linecap:round;stroke-linejoin:round;stroke-dasharray:none"
       sodipodi:nodetypes="cccccc"
       inkscape:transform-center-x="0.8"
       inkscape:transform-center-y="14" /><path
       style="fill:#ffffff;fill-opacity:1;fill-rule:nonzero;stroke:none;stroke-width:0.74942397;stroke-linecap:round;stroke-linejoin:round;stroke-dasharray:none;stroke-opacity:1"
       d="m 55.3,164.2 c -0.37,4.3 -0.98,19.1 -0.72,20.7 0.1,0.07 0.83,0.42 0.92,0.49 -0.13,-3.6 0.32,-16.4 0.58,-21.1 z"
       id="path2974"
       sodipodi:nodetypes="ccccc"
       inkscape:label="pants-deco-lower-1"
       inkscape:transform-center-x="9.5"
       inkscape:transform-center-y="30.7" /></g><g
     id="g3238"
     inkscape:label="shoe-1"
     style="fill-rule:nonzero;stroke-width:0.74942397;stroke-linecap:round;stroke-linejoin:round;stroke-dasharray:none;stroke-opacity:1"><path
       id="shoe"
       stroke="#000000"
       stroke-width="1"
       d="m 53.5,183.9 c -0.56,5 0.6,7.3 6.7,7.4 6.1,0.08 5.5,-1 5.5,-2.2 0.03,-1.2 -0.71,-1.4 -1.1,-2.5 -0.72,-0.19 -5,-0.19 -5.7,-0.02 -0.58,-0.21 -3.4,-1.3 -5.4,-2.5 z m 7.7,-1.1 c 3.2,-0.03 3.4,1.3 3.4,2.1 l 0.03,1.5 c -0.7,-0.14 -4.8,-0.16 -5.7,0.02 -0.31,-0.2 -1.4,-0.8 -1.3,-1.9 0.04,-1.1 0.35,-1.7 3.6,-1.8 z"
       style="fill:#fff087;fill-opacity:1;fill-rule:nonzero;stroke-width:0.74942397;stroke-linecap:round;stroke-linejoin:round;stroke-dasharray:none;stroke-opacity:1"
       sodipodi:nodetypes="cscccccscccccs"
       inkscape:label="shoe-inner-1"
       inkscape:transform-center-x="-0.2"
       inkscape:transform-center-y="2.8" /><path
       d="m 53.7,187.9 c 2.7,1.7 9,2.8 12.2,1.1 1.2,3.7 -13,3.5 -12.2,-1.1 z"
       style="fill:#333333;fill-opacity:1;fill-rule:nonzero;stroke:#000000;stroke-width:0.74942397;stroke-linecap:round;stroke-linejoin:round;stroke-dasharray:none;stroke-opacity:1"
       id="path2635"
       sodipodi:nodetypes="ccc"
       inkscape:label="shoe-bottom-1"
       inkscape:transform-center-x="-0.47"
       inkscape:transform-center-y="6.4" /></g></g><path
   id="jacket-body"
   stroke="#000000"
   stroke-width="1"
   d="m 64.556928,116.27251 c -9.5,1.9 -5.3,10.71 -5.6,16.8 -0.39,6 -2.4,10.19 -3.3,11.1 1.6,1.7 8.9,3.8 12.3,3.1 0.63,-4.3 1.5,-22.8 0.22,-27.5 -1.5,-1.4 -2.1,-2.4 -3.5,-3.5 z m 7.4,0.41 c 8.4,2.9 5.8,14 6.6,18.1 0.84,4 1.9,9 2.4,10.21 -1.1,0.89 -5.1,2.2 -6.6,2.1 0.68,-3.5 -0.42,-21.5 -2.8,-27.4 -0.24,-1 0.29,-2.1 0.31,-3 z"
   style="display:inline;fill:#c2fdff;fill-opacity:1;fill-rule:nonzero;stroke-width:0.74942397;stroke-linecap:round;stroke-linejoin:round;stroke-dasharray:none;stroke-opacity:1"
   sodipodi:nodetypes="czccccczcccccz"
   inkscape:transform-center-x="1.1"
   inkscape:transform-center-y="-22.8" />
  <style
   id="style6">
    #arm-1 { transition-property:transform;transition-timing-function:cubic-bezier(.22,.61,.36,1);transition-delay:0s;transition-duration:0.5s;transform:rotate(0deg);transform-origin: 48% 95%; }    #canvas:hover #arm-1 { transform: rotate(10deg); }
  </style>
  <g
   id="arm-1"
   inkscape:label="arm-1"
   inkscape:transform-center-x="10.184861"
   inkscape:transform-center-y="23.245442"
   transform="matrix(1.0489138,0.05888143,-0.05888143,1.0489138,5.6993435,-9.6865214)"
   style="stroke-width:0.71335315;stroke-dasharray:none"><path
     id="arm"
     style="display:inline;fill:#ffe2d4;fill-opacity:1;fill-rule:nonzero;stroke:#886353;stroke-width:0.71335315;stroke-linecap:round;stroke-linejoin:round;stroke-dasharray:none;stroke-opacity:1"
     inkscape:label="arm-upper-inner-1"
     inkscape:transform-center-x="6.4256134"
     inkscape:transform-center-y="10.469559"
     d="M 56.352174,136.89062 C 57.936501,132.63229 59.369045,128.58553 61.2,123.98 c 0.35,-1.2 1.1,-2.6 0.3,-3.8 -0.38,-0.44 -1,-0.62 -1.5,-0.56 -1.3,0.19 -2.5,1.3 -3,2.5 -1.578542,4.10538 -3.176563,8.34491 -5.267723,12.81723 -2.09116,4.47232 3.419897,5.05339 4.619897,1.95339 z"
     sodipodi:nodetypes="ccccczc" /><path
     id="path1995"
     style="display:inline;fill:#ffe2d4;fill-opacity:1;fill-rule:nonzero;stroke:#886353;stroke-width:0.71335315;stroke-linecap:round;stroke-linejoin:round;stroke-dasharray:none;stroke-opacity:1"
     inkscape:label="arm-lower-inner-1"
     inkscape:transform-center-x="4.4241168"
     inkscape:transform-center-y="9.4903302"
     d="m 52.045322,134.21429 c -1.506678,3.96306 -3.461509,8.15017 -4.461742,11.11826 -0.980242,2.96874 3.007887,4.57272 4.337562,1.34488 1.329674,-3.22785 2.658765,-6.02075 4.709673,-10.53392"
     sodipodi:nodetypes="czzc" /><path
     id="path1962"
     style="display:inline;fill:#ffe2d4;fill-opacity:1;fill-rule:nonzero;stroke:#886353;stroke-width:0.71335315;stroke-linecap:round;stroke-linejoin:round;stroke-dasharray:none;stroke-opacity:1"
     inkscape:label="hand-1"
     inkscape:transform-center-x="10.534209"
     inkscape:transform-center-y="20.697768"
     d="m 47.596745,145.32239 c -2.642187,1.21195 -3.63192,4.4574 -1.879948,5.91706 1.655388,1.35635 4.368976,0.99727 4.654494,-1.54458 -0.04701,1.39921 0.695768,1.92445 1.445426,1.64946 0.800635,-0.30328 0.33727,-2.64512 -0.09873,-4.26067"
     sodipodi:nodetypes="czczc" /></g>
  <style
   id="style7">
    #sleeve-1 { transition-property:transform;transition-timing-function:cubic-bezier(.22,.61,.36,1);transition-delay:0s;transition-duration:0.5s;transform:rotate(0deg);transform-origin: 47% 94% 0px; }    #canvas:hover #sleeve-1 { transform:rotate(10deg); }
  </style>
    <g
   id="sleeve-1"
   inkscape:label="sleeve-1"
   inkscape:transform-center-x="8.5479271"
   inkscape:transform-center-y="18.447534"
   transform="rotate(3.2129649,68.297631,144.48121)"
   style="display:inline;stroke-width:0.74942397;stroke-dasharray:none"><g
     id="g2031"
     inkscape:label="sleeve-lower-1"
     style="display:inline;stroke-width:0.74942397;stroke-dasharray:none"
     inkscape:transform-center-x="8.2526006"
     inkscape:transform-center-y="15.857566"
     transform="rotate(1.9243629,42.406598,128.76905)"><path
       d="m 48.392512,142.43122 c -1.21976,0.89576 -1.665926,1.839 -1.640471,3.00532 0.07381,1.1693 5.369373,2.6592 6.444939,2.53111 0.982429,-0.19205 1.441137,-2.9205 1.295233,-3.70598 -0.824399,0.46384 -4.145602,-0.45835 -6.099701,-1.83045 z"
       style="display:inline;fill:#c2fdff;fill-opacity:1;fill-rule:nonzero;stroke:#000000;stroke-width:0.74942397;stroke-linecap:round;stroke-linejoin:round;stroke-dasharray:none;stroke-opacity:1"
       id="path2028"
       inkscape:label="sleeve-lower-base-1"
       inkscape:transform-center-x="-0.12103888"
       inkscape:transform-center-y="-0.35524672" /><path
       style="display:inline;fill:#fff087;fill-opacity:1;fill-rule:nonzero;stroke:none;stroke-width:0.74942397;stroke-linecap:round;stroke-linejoin:round;stroke-dasharray:none;stroke-opacity:1"
       d="m 47.118125,145.43711 c 0.01251,-0.51467 0.117747,-1.03664 0.35967,-1.50513 1.635754,1.3413 5.110112,1.87869 6.418042,2.34079 -0.157627,0.49986 -0.416105,1.22899 -0.783751,1.34591 -0.731454,0.0983 -5.098754,-0.90484 -5.974941,-2.1804 z"
       id="path2386"
       sodipodi:nodetypes="cccccc"
       inkscape:label="sleeve-lower-color-1"
       inkscape:transform-center-x="0.25550834"
       inkscape:transform-center-y="0.43033366" /></g><g
     id="g2027"
     inkscape:label="sleeve-upper-1"
     style="fill-rule:nonzero;stroke-width:0.74942397;stroke-linecap:round;stroke-linejoin:round;stroke-dasharray:none;stroke-opacity:1"
     inkscape:transform-center-x="5.9943551"
     inkscape:transform-center-y="7.6717573"><path
       id="sleeve"
       stroke="#000000"
       stroke-width="1"
       d="m 63.2,120.95 c -0.42,2.2 -1.3,7.6 -3.5,12.2 -2.6,-0.44 -7.4,-2.1 -8.4,-3.9 6.2,-4.3 4.6,-11.5 10.79,-11.2"
       inkscape:transform-center-x="2.7"
       inkscape:transform-center-y="3.3"
       inkscape:label="sleeve-upper-base-1"
       sodipodi:nodetypes="cccc"
       style="display:inline;fill:#c2fdff;fill-opacity:1;fill-rule:nonzero;stroke-width:0.74942397;stroke-linecap:round;stroke-linejoin:round;stroke-dasharray:none;stroke-opacity:1" /><path
       style="display:inline;fill:#fff087;fill-opacity:1;fill-rule:nonzero;stroke:none;stroke-width:0.74942397;stroke-linecap:round;stroke-linejoin:round;stroke-dasharray:none;stroke-opacity:1"
       d="m 53.94,127.28 c 1.5,1.8 4.41,2.22 6.61,2.92 -0.15,0.431 -0.778,2.06 -1.04,2.56 -0.863,-0.152 -5.99,-1.33 -7.75,-3.43 0.474,-0.282 1.64,-1.37 2.19,-2.04 z"
       id="path2127"
       sodipodi:nodetypes="ccccc"
       inkscape:label="sleeve-upper-color-1"
       inkscape:transform-center-x="3.2"
       inkscape:transform-center-y="6.7" /></g></g><path
   id="scarve"
   stroke="#000000"
   stroke-width="1"
   d="m 67.456928,123.47251 c -1.3,-1.1 -6.5,-3.4 -7.6,-5 1.1,-1.6 3.8,-2.1 4.8,-2.2 1.3,1.1 3.8,4.1 3.8,5.9 m 6,1.2 c 0.3,-1.1 1.1,-3.2 1.1,-4.2 -0.53,-0.79 -2.4,-1.8 -3.9,-2.3 0.04,1.9 1,4.8 1.4,6.4"
   style="display:inline;fill:#fff087;fill-opacity:1;fill-rule:nonzero;stroke-width:0.74942397;stroke-linecap:round;stroke-linejoin:round;stroke-dasharray:none;stroke-opacity:1"
   sodipodi:nodetypes="cccccccc"
   inkscape:transform-center-x="1.9"
   inkscape:transform-center-y="-38.9" /><circle
   style="display:none;fill:#a7ff8a;fill-opacity:1;fill-rule:nonzero;stroke:none;stroke-width:0.74942397;stroke-linecap:round;stroke-linejoin:round;stroke-dasharray:none;stroke-opacity:1"
   id="path3405"
   cx="60.889999"
   cy="164.60001"
   r="5.9000001" /></g></g><circle
     style="display:none;fill:none;fill-rule:nonzero;stroke:#000000;stroke-width:0.610985;stroke-linecap:round;stroke-linejoin:bevel;stroke-opacity:1"
     id="path627"
     cx="63.302338"
     cy="63.302502"
     r="57.707935" /><metadata
     id="metadata1449"><rdf:RDF><cc:Work
         rdf:about=""><cc:license
           rdf:resource="http://creativecommons.org/licenses/by/4.0/" /></cc:Work><cc:License
         rdf:about="http://creativecommons.org/licenses/by/4.0/"><cc:permits
           rdf:resource="http://creativecommons.org/ns#Reproduction" /><cc:permits
           rdf:resource="http://creativecommons.org/ns#Distribution" /><cc:requires
           rdf:resource="http://creativecommons.org/ns#Notice" /><cc:requires
           rdf:resource="http://creativecommons.org/ns#Attribution" /><cc:permits
           rdf:resource="http://creativecommons.org/ns#DerivativeWorks" /></cc:License></rdf:RDF></metadata></svg>
